<mxfile host="app.diagrams.net" agent="Mozilla/5.0 (Macintosh; Intel Mac OS X 10_15_7) AppleWebKit/537.36 (KHTML, like Gecko) Chrome/137.0.0.0 Safari/537.36" version="27.2.0">
  <diagram name="Страница — 1" id="HcSFoJdZTq_-ZVB5x65-">
    <mxGraphModel dx="1795" dy="585" grid="1" gridSize="10" guides="1" tooltips="1" connect="1" arrows="1" fold="1" page="1" pageScale="1" pageWidth="1100" pageHeight="850" math="0" shadow="0">
      <root>
        <mxCell id="0" />
        <mxCell id="1" parent="0" />
        <mxCell id="0fZ1tOcq0oew0m_tPba--1" value="Adres" style="swimlane;fontStyle=0;childLayout=stackLayout;horizontal=1;startSize=26;fillColor=default;horizontalStack=0;resizeParent=1;resizeLast=0;collapsible=1;marginBottom=0;swimlaneFillColor=default;align=center;" vertex="1" parent="1">
          <mxGeometry x="-20" y="260" width="260" height="182" as="geometry" />
        </mxCell>
        <mxCell id="0fZ1tOcq0oew0m_tPba--2" value="Id_adresa | Prikazi(Id_adresa)" style="shape=partialRectangle;top=0;left=0;right=0;bottom=0;align=left;verticalAlign=top;spacingTop=-2;fillColor=none;spacingLeft=64;spacingRight=4;overflow=hidden;rotatable=0;points=[[0,0.5],[1,0.5]];portConstraint=eastwest;dropTarget=0;" vertex="1" parent="0fZ1tOcq0oew0m_tPba--1">
          <mxGeometry y="26" width="260" height="26" as="geometry" />
        </mxCell>
        <mxCell id="0fZ1tOcq0oew0m_tPba--3" value="FK" style="shape=partialRectangle;top=0;left=0;bottom=0;fillColor=none;align=left;verticalAlign=middle;spacingLeft=4;spacingRight=4;overflow=hidden;rotatable=180;points=[];portConstraint=eastwest;part=1;" vertex="1" connectable="0" parent="0fZ1tOcq0oew0m_tPba--2">
          <mxGeometry width="54" height="26" as="geometry" />
        </mxCell>
        <mxCell id="0fZ1tOcq0oew0m_tPba--4" value="Gorod" style="shape=partialRectangle;top=0;left=0;right=0;bottom=0;align=left;verticalAlign=top;spacingTop=-2;fillColor=none;spacingLeft=64;spacingRight=4;overflow=hidden;rotatable=0;points=[[0,0.5],[1,0.5]];portConstraint=eastwest;dropTarget=0;" vertex="1" parent="0fZ1tOcq0oew0m_tPba--1">
          <mxGeometry y="52" width="260" height="26" as="geometry" />
        </mxCell>
        <mxCell id="0fZ1tOcq0oew0m_tPba--5" value="" style="shape=partialRectangle;top=0;left=0;bottom=0;fillColor=none;align=left;verticalAlign=middle;spacingLeft=4;spacingRight=4;overflow=hidden;rotatable=180;points=[];portConstraint=eastwest;part=1;" vertex="1" connectable="0" parent="0fZ1tOcq0oew0m_tPba--4">
          <mxGeometry width="54" height="26" as="geometry" />
        </mxCell>
        <mxCell id="0fZ1tOcq0oew0m_tPba--6" value="Ulica" style="shape=partialRectangle;top=0;left=0;right=0;bottom=0;align=left;verticalAlign=top;spacingTop=-2;fillColor=none;spacingLeft=64;spacingRight=4;overflow=hidden;rotatable=0;points=[[0,0.5],[1,0.5]];portConstraint=eastwest;dropTarget=0;" vertex="1" parent="0fZ1tOcq0oew0m_tPba--1">
          <mxGeometry y="78" width="260" height="26" as="geometry" />
        </mxCell>
        <mxCell id="0fZ1tOcq0oew0m_tPba--7" value="" style="shape=partialRectangle;top=0;left=0;bottom=0;fillColor=none;align=left;verticalAlign=middle;spacingLeft=4;spacingRight=4;overflow=hidden;rotatable=180;points=[];portConstraint=eastwest;part=1;" vertex="1" connectable="0" parent="0fZ1tOcq0oew0m_tPba--6">
          <mxGeometry width="54" height="26" as="geometry" />
        </mxCell>
        <mxCell id="0fZ1tOcq0oew0m_tPba--8" value="Dom" style="shape=partialRectangle;top=0;left=0;right=0;bottom=0;align=left;verticalAlign=top;spacingTop=-2;fillColor=none;spacingLeft=64;spacingRight=4;overflow=hidden;rotatable=0;points=[[0,0.5],[1,0.5]];portConstraint=eastwest;dropTarget=0;" vertex="1" parent="0fZ1tOcq0oew0m_tPba--1">
          <mxGeometry y="104" width="260" height="26" as="geometry" />
        </mxCell>
        <mxCell id="0fZ1tOcq0oew0m_tPba--9" value="" style="shape=partialRectangle;top=0;left=0;bottom=0;fillColor=none;align=left;verticalAlign=middle;spacingLeft=4;spacingRight=4;overflow=hidden;rotatable=180;points=[];portConstraint=eastwest;part=1;" vertex="1" connectable="0" parent="0fZ1tOcq0oew0m_tPba--8">
          <mxGeometry width="54" height="26" as="geometry" />
        </mxCell>
        <mxCell id="0fZ1tOcq0oew0m_tPba--10" value="Kvartira" style="shape=partialRectangle;top=0;left=0;right=0;bottom=0;align=left;verticalAlign=top;spacingTop=-2;fillColor=none;spacingLeft=64;spacingRight=4;overflow=hidden;rotatable=0;points=[[0,0.5],[1,0.5]];portConstraint=eastwest;dropTarget=0;" vertex="1" parent="0fZ1tOcq0oew0m_tPba--1">
          <mxGeometry y="130" width="260" height="26" as="geometry" />
        </mxCell>
        <mxCell id="0fZ1tOcq0oew0m_tPba--11" value="" style="shape=partialRectangle;top=0;left=0;bottom=0;fillColor=none;align=left;verticalAlign=middle;spacingLeft=4;spacingRight=4;overflow=hidden;rotatable=180;points=[];portConstraint=eastwest;part=1;" vertex="1" connectable="0" parent="0fZ1tOcq0oew0m_tPba--10">
          <mxGeometry width="54" height="26" as="geometry" />
        </mxCell>
        <mxCell id="0fZ1tOcq0oew0m_tPba--12" value="--" style="shape=partialRectangle;top=0;left=0;right=0;bottom=0;align=left;verticalAlign=top;spacingTop=-2;fillColor=none;spacingLeft=64;spacingRight=4;overflow=hidden;rotatable=0;points=[[0,0.5],[1,0.5]];portConstraint=eastwest;dropTarget=0;" vertex="1" parent="0fZ1tOcq0oew0m_tPba--1">
          <mxGeometry y="156" width="260" height="26" as="geometry" />
        </mxCell>
        <mxCell id="0fZ1tOcq0oew0m_tPba--13" value="" style="shape=partialRectangle;top=0;left=0;bottom=0;fillColor=none;align=left;verticalAlign=middle;spacingLeft=4;spacingRight=4;overflow=hidden;rotatable=180;points=[];portConstraint=eastwest;part=1;" vertex="1" connectable="0" parent="0fZ1tOcq0oew0m_tPba--12">
          <mxGeometry width="54" height="26" as="geometry" />
        </mxCell>
        <mxCell id="0fZ1tOcq0oew0m_tPba--14" value="Podrazdelenie" style="swimlane;fontStyle=0;childLayout=stackLayout;horizontal=1;startSize=26;fillColor=default;horizontalStack=0;resizeParent=1;resizeLast=0;collapsible=1;marginBottom=0;swimlaneFillColor=default;align=center;" vertex="1" parent="1">
          <mxGeometry x="300" y="70" width="340" height="208" as="geometry" />
        </mxCell>
        <mxCell id="0fZ1tOcq0oew0m_tPba--15" value="Id_podrazdelenie | Prikazi(Id_podrazdelenie)" style="shape=partialRectangle;top=0;left=0;right=0;bottom=0;align=left;verticalAlign=top;spacingTop=-2;fillColor=none;spacingLeft=64;spacingRight=4;overflow=hidden;rotatable=0;points=[[0,0.5],[1,0.5]];portConstraint=eastwest;dropTarget=0;" vertex="1" parent="0fZ1tOcq0oew0m_tPba--14">
          <mxGeometry y="26" width="340" height="26" as="geometry" />
        </mxCell>
        <mxCell id="0fZ1tOcq0oew0m_tPba--16" value="FK" style="shape=partialRectangle;top=0;left=0;bottom=0;fillColor=none;align=left;verticalAlign=middle;spacingLeft=4;spacingRight=4;overflow=hidden;rotatable=180;points=[];portConstraint=eastwest;part=1;" vertex="1" connectable="0" parent="0fZ1tOcq0oew0m_tPba--15">
          <mxGeometry width="54" height="26" as="geometry" />
        </mxCell>
        <mxCell id="0fZ1tOcq0oew0m_tPba--17" value="Podrazdelenie" style="shape=partialRectangle;top=0;left=0;right=0;bottom=0;align=left;verticalAlign=top;spacingTop=-2;fillColor=none;spacingLeft=64;spacingRight=4;overflow=hidden;rotatable=0;points=[[0,0.5],[1,0.5]];portConstraint=eastwest;dropTarget=0;" vertex="1" parent="0fZ1tOcq0oew0m_tPba--14">
          <mxGeometry y="52" width="340" height="26" as="geometry" />
        </mxCell>
        <mxCell id="0fZ1tOcq0oew0m_tPba--18" value="" style="shape=partialRectangle;top=0;left=0;bottom=0;fillColor=none;align=left;verticalAlign=middle;spacingLeft=4;spacingRight=4;overflow=hidden;rotatable=180;points=[];portConstraint=eastwest;part=1;" vertex="1" connectable="0" parent="0fZ1tOcq0oew0m_tPba--17">
          <mxGeometry width="54" height="26" as="geometry" />
        </mxCell>
        <mxCell id="0fZ1tOcq0oew0m_tPba--19" value="Dolgnost" style="shape=partialRectangle;top=0;left=0;right=0;bottom=0;align=left;verticalAlign=top;spacingTop=-2;fillColor=none;spacingLeft=64;spacingRight=4;overflow=hidden;rotatable=0;points=[[0,0.5],[1,0.5]];portConstraint=eastwest;dropTarget=0;" vertex="1" parent="0fZ1tOcq0oew0m_tPba--14">
          <mxGeometry y="78" width="340" height="26" as="geometry" />
        </mxCell>
        <mxCell id="0fZ1tOcq0oew0m_tPba--20" value="" style="shape=partialRectangle;top=0;left=0;bottom=0;fillColor=none;align=left;verticalAlign=middle;spacingLeft=4;spacingRight=4;overflow=hidden;rotatable=180;points=[];portConstraint=eastwest;part=1;" vertex="1" connectable="0" parent="0fZ1tOcq0oew0m_tPba--19">
          <mxGeometry width="54" height="26" as="geometry" />
        </mxCell>
        <mxCell id="0fZ1tOcq0oew0m_tPba--21" value="Id_dolgnosti | Prikazi(Id_dolgnosti)" style="shape=partialRectangle;top=0;left=0;right=0;bottom=0;align=left;verticalAlign=top;spacingTop=-2;fillColor=none;spacingLeft=64;spacingRight=4;overflow=hidden;rotatable=0;points=[[0,0.5],[1,0.5]];portConstraint=eastwest;dropTarget=0;" vertex="1" parent="0fZ1tOcq0oew0m_tPba--14">
          <mxGeometry y="104" width="340" height="26" as="geometry" />
        </mxCell>
        <mxCell id="0fZ1tOcq0oew0m_tPba--22" value="FK" style="shape=partialRectangle;top=0;left=0;bottom=0;fillColor=none;align=left;verticalAlign=middle;spacingLeft=4;spacingRight=4;overflow=hidden;rotatable=180;points=[];portConstraint=eastwest;part=1;" vertex="1" connectable="0" parent="0fZ1tOcq0oew0m_tPba--21">
          <mxGeometry width="54" height="26" as="geometry" />
        </mxCell>
        <mxCell id="0fZ1tOcq0oew0m_tPba--23" value="Dolgnost" style="shape=partialRectangle;top=0;left=0;right=0;bottom=0;align=left;verticalAlign=top;spacingTop=-2;fillColor=none;spacingLeft=64;spacingRight=4;overflow=hidden;rotatable=0;points=[[0,0.5],[1,0.5]];portConstraint=eastwest;dropTarget=0;" vertex="1" parent="0fZ1tOcq0oew0m_tPba--14">
          <mxGeometry y="130" width="340" height="26" as="geometry" />
        </mxCell>
        <mxCell id="0fZ1tOcq0oew0m_tPba--24" value="" style="shape=partialRectangle;top=0;left=0;bottom=0;fillColor=none;align=left;verticalAlign=middle;spacingLeft=4;spacingRight=4;overflow=hidden;rotatable=180;points=[];portConstraint=eastwest;part=1;" vertex="1" connectable="0" parent="0fZ1tOcq0oew0m_tPba--23">
          <mxGeometry width="54" height="26" as="geometry" />
        </mxCell>
        <mxCell id="0fZ1tOcq0oew0m_tPba--25" value="Oklad" style="shape=partialRectangle;top=0;left=0;right=0;bottom=0;align=left;verticalAlign=top;spacingTop=-2;fillColor=none;spacingLeft=64;spacingRight=4;overflow=hidden;rotatable=0;points=[[0,0.5],[1,0.5]];portConstraint=eastwest;dropTarget=0;" vertex="1" parent="0fZ1tOcq0oew0m_tPba--14">
          <mxGeometry y="156" width="340" height="26" as="geometry" />
        </mxCell>
        <mxCell id="0fZ1tOcq0oew0m_tPba--26" value="" style="shape=partialRectangle;top=0;left=0;bottom=0;fillColor=none;align=left;verticalAlign=middle;spacingLeft=4;spacingRight=4;overflow=hidden;rotatable=180;points=[];portConstraint=eastwest;part=1;" vertex="1" connectable="0" parent="0fZ1tOcq0oew0m_tPba--25">
          <mxGeometry width="54" height="26" as="geometry" />
        </mxCell>
        <mxCell id="0fZ1tOcq0oew0m_tPba--27" value="--" style="shape=partialRectangle;top=0;left=0;right=0;bottom=0;align=left;verticalAlign=top;spacingTop=-2;fillColor=none;spacingLeft=64;spacingRight=4;overflow=hidden;rotatable=0;points=[[0,0.5],[1,0.5]];portConstraint=eastwest;dropTarget=0;" vertex="1" parent="0fZ1tOcq0oew0m_tPba--14">
          <mxGeometry y="182" width="340" height="26" as="geometry" />
        </mxCell>
        <mxCell id="0fZ1tOcq0oew0m_tPba--28" value="" style="shape=partialRectangle;top=0;left=0;bottom=0;fillColor=none;align=left;verticalAlign=middle;spacingLeft=4;spacingRight=4;overflow=hidden;rotatable=180;points=[];portConstraint=eastwest;part=1;" vertex="1" connectable="0" parent="0fZ1tOcq0oew0m_tPba--27">
          <mxGeometry width="54" height="26" as="geometry" />
        </mxCell>
        <mxCell id="0fZ1tOcq0oew0m_tPba--29" value="Sotrudniki" style="swimlane;fontStyle=0;childLayout=stackLayout;horizontal=1;startSize=26;fillColor=default;horizontalStack=0;resizeParent=1;resizeLast=0;collapsible=1;marginBottom=0;swimlaneFillColor=default;align=center;" vertex="1" parent="1">
          <mxGeometry x="540" y="360" width="300" height="260" as="geometry" />
        </mxCell>
        <mxCell id="0fZ1tOcq0oew0m_tPba--30" value="Id_sotrudnika | Prikazi(Id_sotrudnika)" style="shape=partialRectangle;top=0;left=0;right=0;bottom=0;align=left;verticalAlign=top;spacingTop=-2;fillColor=none;spacingLeft=64;spacingRight=4;overflow=hidden;rotatable=0;points=[[0,0.5],[1,0.5]];portConstraint=eastwest;dropTarget=0;" vertex="1" parent="0fZ1tOcq0oew0m_tPba--29">
          <mxGeometry y="26" width="300" height="26" as="geometry" />
        </mxCell>
        <mxCell id="0fZ1tOcq0oew0m_tPba--31" value="FK" style="shape=partialRectangle;top=0;left=0;bottom=0;fillColor=none;align=left;verticalAlign=middle;spacingLeft=4;spacingRight=4;overflow=hidden;rotatable=180;points=[];portConstraint=eastwest;part=1;" vertex="1" connectable="0" parent="0fZ1tOcq0oew0m_tPba--30">
          <mxGeometry width="54" height="26" as="geometry" />
        </mxCell>
        <mxCell id="0fZ1tOcq0oew0m_tPba--32" value="FIO" style="shape=partialRectangle;top=0;left=0;right=0;bottom=0;align=left;verticalAlign=top;spacingTop=-2;fillColor=none;spacingLeft=64;spacingRight=4;overflow=hidden;rotatable=0;points=[[0,0.5],[1,0.5]];portConstraint=eastwest;dropTarget=0;" vertex="1" parent="0fZ1tOcq0oew0m_tPba--29">
          <mxGeometry y="52" width="300" height="26" as="geometry" />
        </mxCell>
        <mxCell id="0fZ1tOcq0oew0m_tPba--33" value="" style="shape=partialRectangle;top=0;left=0;bottom=0;fillColor=none;align=left;verticalAlign=middle;spacingLeft=4;spacingRight=4;overflow=hidden;rotatable=180;points=[];portConstraint=eastwest;part=1;" vertex="1" connectable="0" parent="0fZ1tOcq0oew0m_tPba--32">
          <mxGeometry width="54" height="26" as="geometry" />
        </mxCell>
        <mxCell id="0fZ1tOcq0oew0m_tPba--34" value="Vozrast" style="shape=partialRectangle;top=0;left=0;right=0;bottom=0;align=left;verticalAlign=top;spacingTop=-2;fillColor=none;spacingLeft=64;spacingRight=4;overflow=hidden;rotatable=0;points=[[0,0.5],[1,0.5]];portConstraint=eastwest;dropTarget=0;" vertex="1" parent="0fZ1tOcq0oew0m_tPba--29">
          <mxGeometry y="78" width="300" height="26" as="geometry" />
        </mxCell>
        <mxCell id="0fZ1tOcq0oew0m_tPba--35" value="" style="shape=partialRectangle;top=0;left=0;bottom=0;fillColor=none;align=left;verticalAlign=middle;spacingLeft=4;spacingRight=4;overflow=hidden;rotatable=180;points=[];portConstraint=eastwest;part=1;" vertex="1" connectable="0" parent="0fZ1tOcq0oew0m_tPba--34">
          <mxGeometry width="54" height="26" as="geometry" />
        </mxCell>
        <mxCell id="0fZ1tOcq0oew0m_tPba--36" value="Obrazovanie" style="shape=partialRectangle;top=0;left=0;right=0;bottom=0;align=left;verticalAlign=top;spacingTop=-2;fillColor=none;spacingLeft=64;spacingRight=4;overflow=hidden;rotatable=0;points=[[0,0.5],[1,0.5]];portConstraint=eastwest;dropTarget=0;" vertex="1" parent="0fZ1tOcq0oew0m_tPba--29">
          <mxGeometry y="104" width="300" height="26" as="geometry" />
        </mxCell>
        <mxCell id="0fZ1tOcq0oew0m_tPba--37" value="" style="shape=partialRectangle;top=0;left=0;bottom=0;fillColor=none;align=left;verticalAlign=middle;spacingLeft=4;spacingRight=4;overflow=hidden;rotatable=180;points=[];portConstraint=eastwest;part=1;" vertex="1" connectable="0" parent="0fZ1tOcq0oew0m_tPba--36">
          <mxGeometry width="54" height="26" as="geometry" />
        </mxCell>
        <mxCell id="0fZ1tOcq0oew0m_tPba--38" value="Telefon" style="shape=partialRectangle;top=0;left=0;right=0;bottom=0;align=left;verticalAlign=top;spacingTop=-2;fillColor=none;spacingLeft=64;spacingRight=4;overflow=hidden;rotatable=0;points=[[0,0.5],[1,0.5]];portConstraint=eastwest;dropTarget=0;" vertex="1" parent="0fZ1tOcq0oew0m_tPba--29">
          <mxGeometry y="130" width="300" height="26" as="geometry" />
        </mxCell>
        <mxCell id="0fZ1tOcq0oew0m_tPba--39" value="" style="shape=partialRectangle;top=0;left=0;bottom=0;fillColor=none;align=left;verticalAlign=middle;spacingLeft=4;spacingRight=4;overflow=hidden;rotatable=180;points=[];portConstraint=eastwest;part=1;" vertex="1" connectable="0" parent="0fZ1tOcq0oew0m_tPba--38">
          <mxGeometry width="54" height="26" as="geometry" />
        </mxCell>
        <mxCell id="0fZ1tOcq0oew0m_tPba--40" value="Id_adresa" style="shape=partialRectangle;top=0;left=0;right=0;bottom=0;align=left;verticalAlign=top;spacingTop=-2;fillColor=none;spacingLeft=64;spacingRight=4;overflow=hidden;rotatable=0;points=[[0,0.5],[1,0.5]];portConstraint=eastwest;dropTarget=0;" vertex="1" parent="0fZ1tOcq0oew0m_tPba--29">
          <mxGeometry y="156" width="300" height="26" as="geometry" />
        </mxCell>
        <mxCell id="0fZ1tOcq0oew0m_tPba--41" value="" style="shape=partialRectangle;top=0;left=0;bottom=0;fillColor=none;align=left;verticalAlign=middle;spacingLeft=4;spacingRight=4;overflow=hidden;rotatable=180;points=[];portConstraint=eastwest;part=1;" vertex="1" connectable="0" parent="0fZ1tOcq0oew0m_tPba--40">
          <mxGeometry width="54" height="26" as="geometry" />
        </mxCell>
        <mxCell id="0fZ1tOcq0oew0m_tPba--42" value="Id_podrazdelenie" style="shape=partialRectangle;top=0;left=0;right=0;bottom=0;align=left;verticalAlign=top;spacingTop=-2;fillColor=none;spacingLeft=64;spacingRight=4;overflow=hidden;rotatable=0;points=[[0,0.5],[1,0.5]];portConstraint=eastwest;dropTarget=0;" vertex="1" parent="0fZ1tOcq0oew0m_tPba--29">
          <mxGeometry y="182" width="300" height="26" as="geometry" />
        </mxCell>
        <mxCell id="0fZ1tOcq0oew0m_tPba--43" value="" style="shape=partialRectangle;top=0;left=0;bottom=0;fillColor=none;align=left;verticalAlign=middle;spacingLeft=4;spacingRight=4;overflow=hidden;rotatable=180;points=[];portConstraint=eastwest;part=1;" vertex="1" connectable="0" parent="0fZ1tOcq0oew0m_tPba--42">
          <mxGeometry width="54" height="26" as="geometry" />
        </mxCell>
        <mxCell id="0fZ1tOcq0oew0m_tPba--44" value="Id_dolgnosti" style="shape=partialRectangle;top=0;left=0;right=0;bottom=0;align=left;verticalAlign=top;spacingTop=-2;fillColor=none;spacingLeft=64;spacingRight=4;overflow=hidden;rotatable=0;points=[[0,0.5],[1,0.5]];portConstraint=eastwest;dropTarget=0;" vertex="1" parent="0fZ1tOcq0oew0m_tPba--29">
          <mxGeometry y="208" width="300" height="26" as="geometry" />
        </mxCell>
        <mxCell id="0fZ1tOcq0oew0m_tPba--45" value="" style="shape=partialRectangle;top=0;left=0;bottom=0;fillColor=none;align=left;verticalAlign=middle;spacingLeft=4;spacingRight=4;overflow=hidden;rotatable=180;points=[];portConstraint=eastwest;part=1;" vertex="1" connectable="0" parent="0fZ1tOcq0oew0m_tPba--44">
          <mxGeometry width="54" height="26" as="geometry" />
        </mxCell>
        <mxCell id="0fZ1tOcq0oew0m_tPba--46" value="--" style="shape=partialRectangle;top=0;left=0;right=0;bottom=0;align=left;verticalAlign=top;spacingTop=-2;fillColor=none;spacingLeft=64;spacingRight=4;overflow=hidden;rotatable=0;points=[[0,0.5],[1,0.5]];portConstraint=eastwest;dropTarget=0;" vertex="1" parent="0fZ1tOcq0oew0m_tPba--29">
          <mxGeometry y="234" width="300" height="26" as="geometry" />
        </mxCell>
        <mxCell id="0fZ1tOcq0oew0m_tPba--47" value="" style="shape=partialRectangle;top=0;left=0;bottom=0;fillColor=none;align=left;verticalAlign=middle;spacingLeft=4;spacingRight=4;overflow=hidden;rotatable=180;points=[];portConstraint=eastwest;part=1;" vertex="1" connectable="0" parent="0fZ1tOcq0oew0m_tPba--46">
          <mxGeometry width="54" height="26" as="geometry" />
        </mxCell>
        <mxCell id="0fZ1tOcq0oew0m_tPba--48" value="Tip_prikaza" style="swimlane;fontStyle=0;childLayout=stackLayout;horizontal=1;startSize=26;fillColor=default;horizontalStack=0;resizeParent=1;resizeLast=0;collapsible=1;marginBottom=0;swimlaneFillColor=default;align=center;" vertex="1" parent="1">
          <mxGeometry x="790" y="110" width="280" height="104" as="geometry" />
        </mxCell>
        <mxCell id="0fZ1tOcq0oew0m_tPba--49" value="Id_tip_prikaza | Prikazi(Id_prikaza)" style="shape=partialRectangle;top=0;left=0;right=0;bottom=0;align=left;verticalAlign=top;spacingTop=-2;fillColor=none;spacingLeft=64;spacingRight=4;overflow=hidden;rotatable=0;points=[[0,0.5],[1,0.5]];portConstraint=eastwest;dropTarget=0;" vertex="1" parent="0fZ1tOcq0oew0m_tPba--48">
          <mxGeometry y="26" width="280" height="26" as="geometry" />
        </mxCell>
        <mxCell id="0fZ1tOcq0oew0m_tPba--50" value="FK" style="shape=partialRectangle;top=0;left=0;bottom=0;fillColor=none;align=left;verticalAlign=middle;spacingLeft=4;spacingRight=4;overflow=hidden;rotatable=180;points=[];portConstraint=eastwest;part=1;" vertex="1" connectable="0" parent="0fZ1tOcq0oew0m_tPba--49">
          <mxGeometry width="54" height="26" as="geometry" />
        </mxCell>
        <mxCell id="0fZ1tOcq0oew0m_tPba--51" value="Tip_prikaza" style="shape=partialRectangle;top=0;left=0;right=0;bottom=0;align=left;verticalAlign=top;spacingTop=-2;fillColor=none;spacingLeft=64;spacingRight=4;overflow=hidden;rotatable=0;points=[[0,0.5],[1,0.5]];portConstraint=eastwest;dropTarget=0;" vertex="1" parent="0fZ1tOcq0oew0m_tPba--48">
          <mxGeometry y="52" width="280" height="26" as="geometry" />
        </mxCell>
        <mxCell id="0fZ1tOcq0oew0m_tPba--52" value="" style="shape=partialRectangle;top=0;left=0;bottom=0;fillColor=none;align=left;verticalAlign=middle;spacingLeft=4;spacingRight=4;overflow=hidden;rotatable=180;points=[];portConstraint=eastwest;part=1;" vertex="1" connectable="0" parent="0fZ1tOcq0oew0m_tPba--51">
          <mxGeometry width="54" height="26" as="geometry" />
        </mxCell>
        <mxCell id="0fZ1tOcq0oew0m_tPba--53" value="--" style="shape=partialRectangle;top=0;left=0;right=0;bottom=0;align=left;verticalAlign=top;spacingTop=-2;fillColor=none;spacingLeft=64;spacingRight=4;overflow=hidden;rotatable=0;points=[[0,0.5],[1,0.5]];portConstraint=eastwest;dropTarget=0;" vertex="1" parent="0fZ1tOcq0oew0m_tPba--48">
          <mxGeometry y="78" width="280" height="26" as="geometry" />
        </mxCell>
        <mxCell id="0fZ1tOcq0oew0m_tPba--54" value="" style="shape=partialRectangle;top=0;left=0;bottom=0;fillColor=none;align=left;verticalAlign=middle;spacingLeft=4;spacingRight=4;overflow=hidden;rotatable=180;points=[];portConstraint=eastwest;part=1;" vertex="1" connectable="0" parent="0fZ1tOcq0oew0m_tPba--53">
          <mxGeometry width="54" height="26" as="geometry" />
        </mxCell>
        <mxCell id="0fZ1tOcq0oew0m_tPba--55" value="Prikazi" style="swimlane;fontStyle=0;childLayout=stackLayout;horizontal=1;startSize=26;fillColor=default;horizontalStack=0;resizeParent=1;resizeLast=0;collapsible=1;marginBottom=0;swimlaneFillColor=default;align=center;" vertex="1" parent="1">
          <mxGeometry x="1320" y="260" width="310" height="286" as="geometry" />
        </mxCell>
        <mxCell id="0fZ1tOcq0oew0m_tPba--56" value="Nomer_prikaza" style="shape=partialRectangle;top=0;left=0;right=0;bottom=0;align=left;verticalAlign=top;spacingTop=-2;fillColor=none;spacingLeft=64;spacingRight=4;overflow=hidden;rotatable=0;points=[[0,0.5],[1,0.5]];portConstraint=eastwest;dropTarget=0;" vertex="1" parent="0fZ1tOcq0oew0m_tPba--55">
          <mxGeometry y="26" width="310" height="26" as="geometry" />
        </mxCell>
        <mxCell id="0fZ1tOcq0oew0m_tPba--57" value="" style="shape=partialRectangle;top=0;left=0;bottom=0;fillColor=none;align=left;verticalAlign=middle;spacingLeft=4;spacingRight=4;overflow=hidden;rotatable=180;points=[];portConstraint=eastwest;part=1;" vertex="1" connectable="0" parent="0fZ1tOcq0oew0m_tPba--56">
          <mxGeometry width="54" height="26" as="geometry" />
        </mxCell>
        <mxCell id="0fZ1tOcq0oew0m_tPba--58" value="Data" style="shape=partialRectangle;top=0;left=0;right=0;bottom=0;align=left;verticalAlign=top;spacingTop=-2;fillColor=none;spacingLeft=64;spacingRight=4;overflow=hidden;rotatable=0;points=[[0,0.5],[1,0.5]];portConstraint=eastwest;dropTarget=0;" vertex="1" parent="0fZ1tOcq0oew0m_tPba--55">
          <mxGeometry y="52" width="310" height="26" as="geometry" />
        </mxCell>
        <mxCell id="0fZ1tOcq0oew0m_tPba--59" value="" style="shape=partialRectangle;top=0;left=0;bottom=0;fillColor=none;align=left;verticalAlign=middle;spacingLeft=4;spacingRight=4;overflow=hidden;rotatable=180;points=[];portConstraint=eastwest;part=1;" vertex="1" connectable="0" parent="0fZ1tOcq0oew0m_tPba--58">
          <mxGeometry width="54" height="26" as="geometry" />
        </mxCell>
        <mxCell id="0fZ1tOcq0oew0m_tPba--60" value="Id_sotrudnika | Sotrudniki(Id_sotrudnika)" style="shape=partialRectangle;top=0;left=0;right=0;bottom=0;align=left;verticalAlign=top;spacingTop=-2;fillColor=none;spacingLeft=64;spacingRight=4;overflow=hidden;rotatable=0;points=[[0,0.5],[1,0.5]];portConstraint=eastwest;dropTarget=0;" vertex="1" parent="0fZ1tOcq0oew0m_tPba--55">
          <mxGeometry y="78" width="310" height="26" as="geometry" />
        </mxCell>
        <mxCell id="0fZ1tOcq0oew0m_tPba--61" value="FK" style="shape=partialRectangle;top=0;left=0;bottom=0;fillColor=none;align=left;verticalAlign=middle;spacingLeft=4;spacingRight=4;overflow=hidden;rotatable=180;points=[];portConstraint=eastwest;part=1;" vertex="1" connectable="0" parent="0fZ1tOcq0oew0m_tPba--60">
          <mxGeometry width="54" height="26" as="geometry" />
        </mxCell>
        <mxCell id="0fZ1tOcq0oew0m_tPba--62" value="Id_prikaza | Tip_prikaza(Id_tip_prikaza)" style="shape=partialRectangle;top=0;left=0;right=0;bottom=0;align=left;verticalAlign=top;spacingTop=-2;fillColor=none;spacingLeft=64;spacingRight=4;overflow=hidden;rotatable=0;points=[[0,0.5],[1,0.5]];portConstraint=eastwest;dropTarget=0;" vertex="1" parent="0fZ1tOcq0oew0m_tPba--55">
          <mxGeometry y="104" width="310" height="26" as="geometry" />
        </mxCell>
        <mxCell id="0fZ1tOcq0oew0m_tPba--63" value="FK" style="shape=partialRectangle;top=0;left=0;bottom=0;fillColor=none;align=left;verticalAlign=middle;spacingLeft=4;spacingRight=4;overflow=hidden;rotatable=180;points=[];portConstraint=eastwest;part=1;" vertex="1" connectable="0" parent="0fZ1tOcq0oew0m_tPba--62">
          <mxGeometry width="54" height="26" as="geometry" />
        </mxCell>
        <mxCell id="0fZ1tOcq0oew0m_tPba--64" value="--" style="shape=partialRectangle;top=0;left=0;right=0;bottom=0;align=left;verticalAlign=top;spacingTop=-2;fillColor=none;spacingLeft=64;spacingRight=4;overflow=hidden;rotatable=0;points=[[0,0.5],[1,0.5]];portConstraint=eastwest;dropTarget=0;" vertex="1" parent="0fZ1tOcq0oew0m_tPba--55">
          <mxGeometry y="130" width="310" height="26" as="geometry" />
        </mxCell>
        <mxCell id="0fZ1tOcq0oew0m_tPba--65" value="" style="shape=partialRectangle;top=0;left=0;bottom=0;fillColor=none;align=left;verticalAlign=middle;spacingLeft=4;spacingRight=4;overflow=hidden;rotatable=180;points=[];portConstraint=eastwest;part=1;" vertex="1" connectable="0" parent="0fZ1tOcq0oew0m_tPba--64">
          <mxGeometry width="54" height="26" as="geometry" />
        </mxCell>
        <mxCell id="0fZ1tOcq0oew0m_tPba--66" value="ADD" style="shape=partialRectangle;top=0;left=0;right=0;bottom=0;align=left;verticalAlign=top;spacingTop=-2;fillColor=none;spacingLeft=64;spacingRight=4;overflow=hidden;rotatable=0;points=[[0,0.5],[1,0.5]];portConstraint=eastwest;dropTarget=0;" vertex="1" parent="0fZ1tOcq0oew0m_tPba--55">
          <mxGeometry y="156" width="310" height="26" as="geometry" />
        </mxCell>
        <mxCell id="0fZ1tOcq0oew0m_tPba--67" value="" style="shape=partialRectangle;top=0;left=0;bottom=0;fillColor=none;align=left;verticalAlign=middle;spacingLeft=4;spacingRight=4;overflow=hidden;rotatable=180;points=[];portConstraint=eastwest;part=1;" vertex="1" connectable="0" parent="0fZ1tOcq0oew0m_tPba--66">
          <mxGeometry width="54" height="26" as="geometry" />
        </mxCell>
        <mxCell id="0fZ1tOcq0oew0m_tPba--68" value="ADD" style="shape=partialRectangle;top=0;left=0;right=0;bottom=0;align=left;verticalAlign=top;spacingTop=-2;fillColor=none;spacingLeft=64;spacingRight=4;overflow=hidden;rotatable=0;points=[[0,0.5],[1,0.5]];portConstraint=eastwest;dropTarget=0;" vertex="1" parent="0fZ1tOcq0oew0m_tPba--55">
          <mxGeometry y="182" width="310" height="26" as="geometry" />
        </mxCell>
        <mxCell id="0fZ1tOcq0oew0m_tPba--69" value="" style="shape=partialRectangle;top=0;left=0;bottom=0;fillColor=none;align=left;verticalAlign=middle;spacingLeft=4;spacingRight=4;overflow=hidden;rotatable=180;points=[];portConstraint=eastwest;part=1;" vertex="1" connectable="0" parent="0fZ1tOcq0oew0m_tPba--68">
          <mxGeometry width="54" height="26" as="geometry" />
        </mxCell>
        <mxCell id="0fZ1tOcq0oew0m_tPba--70" value="ADD" style="shape=partialRectangle;top=0;left=0;right=0;bottom=0;align=left;verticalAlign=top;spacingTop=-2;fillColor=none;spacingLeft=64;spacingRight=4;overflow=hidden;rotatable=0;points=[[0,0.5],[1,0.5]];portConstraint=eastwest;dropTarget=0;" vertex="1" parent="0fZ1tOcq0oew0m_tPba--55">
          <mxGeometry y="208" width="310" height="26" as="geometry" />
        </mxCell>
        <mxCell id="0fZ1tOcq0oew0m_tPba--71" value="" style="shape=partialRectangle;top=0;left=0;bottom=0;fillColor=none;align=left;verticalAlign=middle;spacingLeft=4;spacingRight=4;overflow=hidden;rotatable=180;points=[];portConstraint=eastwest;part=1;" vertex="1" connectable="0" parent="0fZ1tOcq0oew0m_tPba--70">
          <mxGeometry width="54" height="26" as="geometry" />
        </mxCell>
        <mxCell id="0fZ1tOcq0oew0m_tPba--72" value="ADD" style="shape=partialRectangle;top=0;left=0;right=0;bottom=0;align=left;verticalAlign=top;spacingTop=-2;fillColor=none;spacingLeft=64;spacingRight=4;overflow=hidden;rotatable=0;points=[[0,0.5],[1,0.5]];portConstraint=eastwest;dropTarget=0;" vertex="1" parent="0fZ1tOcq0oew0m_tPba--55">
          <mxGeometry y="234" width="310" height="26" as="geometry" />
        </mxCell>
        <mxCell id="0fZ1tOcq0oew0m_tPba--73" value="" style="shape=partialRectangle;top=0;left=0;bottom=0;fillColor=none;align=left;verticalAlign=middle;spacingLeft=4;spacingRight=4;overflow=hidden;rotatable=180;points=[];portConstraint=eastwest;part=1;" vertex="1" connectable="0" parent="0fZ1tOcq0oew0m_tPba--72">
          <mxGeometry width="54" height="26" as="geometry" />
        </mxCell>
        <mxCell id="0fZ1tOcq0oew0m_tPba--74" value="ADD" style="shape=partialRectangle;top=0;left=0;right=0;bottom=0;align=left;verticalAlign=top;spacingTop=-2;fillColor=none;spacingLeft=64;spacingRight=4;overflow=hidden;rotatable=0;points=[[0,0.5],[1,0.5]];portConstraint=eastwest;dropTarget=0;" vertex="1" parent="0fZ1tOcq0oew0m_tPba--55">
          <mxGeometry y="260" width="310" height="26" as="geometry" />
        </mxCell>
        <mxCell id="0fZ1tOcq0oew0m_tPba--75" value="" style="shape=partialRectangle;top=0;left=0;bottom=0;fillColor=none;align=left;verticalAlign=middle;spacingLeft=4;spacingRight=4;overflow=hidden;rotatable=180;points=[];portConstraint=eastwest;part=1;" vertex="1" connectable="0" parent="0fZ1tOcq0oew0m_tPba--74">
          <mxGeometry width="54" height="26" as="geometry" />
        </mxCell>
      </root>
    </mxGraphModel>
  </diagram>
</mxfile>
